<svg width="255" height="66.65" viewBox="0 0 255 66.65" xmlns="http://www.w3.org/2000/svg"><g id="svgGroup" stroke-linecap="round" fill-rule="evenodd" font-size="9pt" stroke="#000" stroke-width="0.25mm" fill="#000" style="stroke:#000;stroke-width:0.25mm;fill:#000"><path d="M 24.6 66.65 L 12.85 66.65 A 2.775 2.775 0 0 1 11.727 66.428 A 2.664 2.664 0 0 1 10.85 65.8 L 0.85 55.8 A 2.62 2.62 0 0 1 0.001 53.893 A 3.323 3.323 0 0 1 0 53.8 L 0 1.25 A 1.799 1.799 0 0 1 0.062 0.756 Q 0.221 0.201 0.787 0.053 A 1.842 1.842 0 0 1 1.25 0 L 15.4 0 A 1.799 1.799 0 0 1 15.895 0.062 Q 16.45 0.221 16.597 0.787 A 1.842 1.842 0 0 1 16.65 1.25 L 16.65 53.25 L 27.85 53.25 L 27.85 1.25 A 1.799 1.799 0 0 1 27.912 0.756 Q 28.071 0.201 28.637 0.053 A 1.842 1.842 0 0 1 29.1 0 L 43.25 0 A 1.799 1.799 0 0 1 43.745 0.062 Q 44.3 0.221 44.447 0.787 A 1.842 1.842 0 0 1 44.5 1.25 L 44.5 53.25 L 55.65 53.25 L 55.65 1.25 A 1.799 1.799 0 0 1 55.712 0.756 Q 55.871 0.201 56.437 0.053 A 1.842 1.842 0 0 1 56.9 0 L 71.1 0 A 1.799 1.799 0 0 1 71.595 0.062 Q 72.15 0.221 72.297 0.787 A 1.842 1.842 0 0 1 72.35 1.25 L 72.35 53.8 A 2.775 2.775 0 0 1 72.128 54.924 A 2.664 2.664 0 0 1 71.5 55.8 L 61.5 65.8 Q 60.65 66.65 59.5 66.65 L 47.75 66.65 Q 46.6 66.65 45.75 65.8 L 37.35 57.4 L 35 57.4 L 26.6 65.8 Q 25.75 66.65 24.6 66.65 Z M 227.9 66.65 L 213.75 66.65 A 1.799 1.799 0 0 1 213.256 66.588 Q 212.701 66.429 212.553 65.863 A 1.842 1.842 0 0 1 212.5 65.4 L 212.5 1.25 A 1.799 1.799 0 0 1 212.562 0.756 Q 212.721 0.201 213.287 0.053 A 1.842 1.842 0 0 1 213.75 0 L 242.15 0 A 2.957 2.957 0 0 1 243.203 0.182 A 2.657 2.657 0 0 1 244.15 0.8 L 254.15 10.8 Q 255 11.65 255 12.8 L 255 65.4 A 1.799 1.799 0 0 1 254.938 65.895 Q 254.779 66.45 254.213 66.597 A 1.842 1.842 0 0 1 253.75 66.65 L 239.6 66.65 A 1.799 1.799 0 0 1 239.106 66.588 Q 238.551 66.429 238.403 65.863 A 1.842 1.842 0 0 1 238.35 65.4 L 238.35 13.3 L 229.15 13.3 L 229.15 65.4 A 1.799 1.799 0 0 1 229.088 65.895 Q 228.929 66.45 228.363 66.597 A 1.842 1.842 0 0 1 227.9 66.65 Z M 159 66.65 L 139.35 66.65 Q 138.2 66.65 137.35 65.8 L 127.35 55.8 A 2.62 2.62 0 0 1 126.501 53.893 A 3.323 3.323 0 0 1 126.5 53.8 L 126.5 12.8 Q 126.5 11.65 127.35 10.8 L 137.35 0.8 Q 138.2 0 139.35 0 L 159 0 A 2.957 2.957 0 0 1 160.053 0.182 A 2.657 2.657 0 0 1 161 0.8 L 171 10.8 Q 171.85 11.65 171.85 12.8 L 171.85 53.8 A 2.775 2.775 0 0 1 171.628 54.924 A 2.664 2.664 0 0 1 171 55.8 L 161 65.8 A 2.62 2.62 0 0 1 159.093 66.649 A 3.323 3.323 0 0 1 159 66.65 Z M 115.6 66.65 L 103.25 66.65 A 3.419 3.419 0 0 1 102.082 66.456 A 3.086 3.086 0 0 1 101.25 66 L 93.1 58.55 L 84.85 47.8 A 129.672 129.672 0 0 0 84.658 47.556 Q 84.272 47.067 84.15 46.925 Q 84.018 46.771 84.002 46.208 A 5.704 5.704 0 0 1 84 46.05 L 84 20.55 A 4.387 4.387 0 0 1 84.009 20.268 Q 84.035 19.856 84.147 19.687 A 0.348 0.348 0 0 1 84.175 19.65 A 5.008 5.008 0 0 0 84.267 19.541 Q 84.414 19.363 84.678 19.023 A 66.151 66.151 0 0 0 84.85 18.8 L 92.5 8.9 L 101.25 0.65 A 6.333 6.333 0 0 1 101.511 0.447 Q 101.774 0.254 101.973 0.16 A 1.161 1.161 0 0 1 102.125 0.1 Q 102.445 0.002 103.224 0 A 12.606 12.606 0 0 1 103.25 0 L 115.6 0 A 1.799 1.799 0 0 1 116.095 0.062 Q 116.65 0.221 116.797 0.787 A 1.842 1.842 0 0 1 116.85 1.25 L 116.85 9.25 A 4.66 4.66 0 0 1 116.797 9.943 A 5.251 5.251 0 0 1 116.775 10.075 A 0.972 0.972 0 0 1 116.525 10.568 Q 116.419 10.685 116.27 10.787 A 1.845 1.845 0 0 1 116.25 10.8 L 106.85 17.25 L 100.7 25.15 L 100.7 41.5 L 106.95 49.4 L 116.25 55.8 A 1.474 1.474 0 0 1 116.49 55.984 Q 116.685 56.17 116.75 56.4 A 2.634 2.634 0 0 1 116.845 56.978 A 3.075 3.075 0 0 1 116.85 57.15 L 116.85 65.4 A 1.799 1.799 0 0 1 116.788 65.895 Q 116.629 66.45 116.063 66.597 A 1.842 1.842 0 0 1 115.6 66.65 Z M 199.25 66.65 L 185.1 66.65 A 1.799 1.799 0 0 1 184.606 66.588 Q 184.051 66.429 183.903 65.863 A 1.842 1.842 0 0 1 183.85 65.4 L 183.85 1.25 A 1.799 1.799 0 0 1 183.912 0.756 Q 184.071 0.201 184.637 0.053 A 1.842 1.842 0 0 1 185.1 0 L 199.25 0 A 1.799 1.799 0 0 1 199.745 0.062 Q 200.3 0.221 200.447 0.787 A 1.842 1.842 0 0 1 200.5 1.25 L 200.5 65.4 A 1.799 1.799 0 0 1 200.438 65.895 Q 200.279 66.45 199.713 66.597 A 1.842 1.842 0 0 1 199.25 66.65 Z M 145.25 53.3 L 153.1 53.3 Q 155.2 53.3 155.2 50.5 L 155.2 16.15 Q 155.2 13.402 153.247 13.304 A 2.935 2.935 0 0 0 153.1 13.3 L 145.25 13.3 A 2.053 2.053 0 0 0 144.271 13.519 Q 143.423 13.972 143.247 15.357 A 6.296 6.296 0 0 0 143.2 16.15 L 143.2 50.5 Q 143.2 53.219 145.133 53.298 A 2.875 2.875 0 0 0 145.25 53.3 Z" vector-effect="non-scaling-stroke"/></g></svg>